<?xml version="1.0" encoding="UTF-8" standalone="no"?>
<!-- Created with Inkscape (http://www.inkscape.org/) -->

<svg
   viewBox="500 560 850 150"
   version="1.1"
   id="svg5"
   xmlns="http://www.w3.org/2000/svg"
   xmlns:svg="http://www.w3.org/2000/svg">
  <defs
     id="defs2" />
  <g
     id="layer1">
    <path
       style="fill:#000000;stroke-width:1.07789"
       d="m 663.90766,712.26545 c -6.78039,-0.49596 -27.74161,-0.96118 -46.58052,-1.03382 -32.35208,-0.12473 -43.19071,-0.81063 -59.44007,-3.76156 -13.61334,-2.47223 -25.69363,-4.94734 -28.6009,-5.85998 l -2.95871,-0.9288 2.95871,-0.10708 c 2.43375,-0.0881 2.98395,-0.62949 3.10094,-3.05141 0.10453,-2.16392 -0.35292,-2.94432 -1.72592,-2.94432 -1.02747,0 -1.86814,-0.56585 -1.86814,-1.25745 0,-0.69159 0.77666,-0.98685 1.72592,-0.65614 3.64819,1.27105 11.6351,1.95852 9.61582,0.82769 -1.08486,-0.60754 -2.93406,-1.14189 -4.10933,-1.18742 -1.17526,-0.0456 -2.36194,-0.74546 -2.63707,-1.55538 -0.38539,-1.13452 -0.69324,-1.14879 -1.34101,-0.0622 -0.55336,0.92823 -1.33764,1.03508 -2.29412,0.31256 -0.98245,-0.74215 -1.0539,-1.10369 -0.22053,-1.11589 0.67804,-0.009 1.2328,-0.7928 1.2328,-1.73972 0,-1.0391 -1.66179,-2.2298 -4.19152,-3.00332 -6.13844,-1.87694 -6.6571,-2.14841 -6.6571,-3.48445 0,-1.66877 1.57305,-1.52227 4.75434,0.44282 1.47615,0.91182 6.44694,2.49621 11.0462,3.52085 4.59926,1.02466 12.57846,2.90125 17.73155,4.17024 5.15309,1.26897 11.14449,2.28012 13.31421,2.247 3.43565,-0.0524 2.99002,-0.34178 -3.45183,-2.24106 -4.06823,-1.19945 -12.05676,-3.085 -17.75228,-4.1901 -10.0888,-1.95753 -17.75229,-5.21457 -17.75229,-7.54485 0,-0.63477 -1.26264,-1.15412 -2.80585,-1.15412 -1.54323,0 -3.50703,-0.92772 -4.36401,-2.06161 -1.96104,-2.59469 -4.08449,-12.45071 -3.37787,-15.67841 0.29316,-1.33913 -0.1088,-4.26964 -0.89325,-6.51227 -1.20663,-3.44957 -1.25504,-7.02125 -0.31435,-23.19288 0.61155,-10.51345 1.24361,-23.16543 1.40458,-28.11551 0.17311,-5.32348 0.97327,-10.71337 1.95872,-13.19399 0.91633,-2.30661 1.35887,-4.78755 0.98342,-5.5132 -0.3804,-0.73521 0.75056,-2.84778 2.55438,-4.77147 2.72484,-2.90589 2.93582,-3.46683 1.33347,-3.54512 -1.11561,-0.0546 -1.37622,-0.34574 -0.62958,-0.70359 1.02377,-0.49069 1.03112,-0.96011 0.0374,-2.39036 -1.09896,-1.58171 1.00912,-1.69787 18.94392,-1.04377 11.09926,0.40479 32.38518,0.93696 47.30203,1.18261 37.88771,0.62392 69.58563,1.78744 82.35087,3.02281 58.67321,5.67818 78.44635,7.0269 113.41737,7.73619 33.6913,0.68332 51.88507,1.48067 97.14445,4.25742 49.9978,3.06746 170.21049,1.57814 228.31409,-2.82859 21.2923,-1.61486 85.268,-1.48981 101.5825,0.19856 5.9668,0.6175 15.5086,2.14836 21.2042,3.40192 5.6955,1.25356 13.795,2.65597 17.9988,3.11646 7.6304,0.83583 9.6187,2.09024 5.4243,3.42225 -2.1397,0.6795 -24.1588,-1.28391 -25.4997,-2.27377 -1.3541,-0.99966 -34.7202,-0.61803 -35.5783,0.40693 -0.5355,0.63973 4.1926,1.37639 11.7773,1.83492 13.7695,0.83246 50.1392,5.98093 54.9493,7.77861 1.6395,0.61275 7.1326,1.6919 12.2069,2.39812 5.2896,0.73621 9.818,1.9914 10.6138,2.942 0.7633,0.91188 3.4907,2.01202 6.0608,2.44477 2.57,0.43273 5.6558,1.52453 6.8572,2.42619 1.2013,0.90167 2.8113,1.63939 3.5776,1.63939 0.7664,0 1.9458,0.7952 2.6211,1.7671 0.699,1.00619 2.8493,1.76709 4.9937,1.76709 2.0713,0 4.0403,0.53013 4.3756,1.17807 0.3352,0.64793 2.4695,1.25224 4.7428,1.34293 2.6869,0.1072 1.0271,0.62249 -4.7428,1.47258 -10.7919,1.58996 -12.9394,2.92699 -14.2845,8.89392 -0.5705,2.53055 -1.584,4.85754 -2.2525,5.17111 -0.6685,0.31356 0.2271,0.95101 1.99,1.41655 1.7629,0.46553 3.2052,1.2252 3.2052,1.68814 0,1.88021 5.4078,3.58083 11.6347,3.65881 7.2763,0.0912 5.9902,2.04077 -1.4451,2.19054 -4.7183,0.0951 -7.2309,1.01555 -7.2309,2.64911 0,0.62489 -0.6698,1.93623 -1.4884,2.91409 -2.5345,3.02753 -0.6861,3.94015 8.2037,4.05035 9.429,0.11686 8.3415,0.94741 -4.4962,3.43395 -4.6235,0.89552 -7.1503,1.92723 -7.1503,2.91954 0,0.84404 -0.6698,1.84165 -1.4885,2.21691 -0.8187,0.37526 -1.4318,1.09463 -1.3626,1.59861 0.4167,3.03152 -0.6576,3.59679 -7.7701,4.08861 -4.2144,0.29143 -8.5416,1.14625 -9.6159,1.89964 -1.9182,1.34517 -1.9146,1.38277 0.1976,2.09372 1.1829,0.39817 2.3725,1.41406 2.6435,2.25754 0.2709,0.84349 2.2988,1.8981 4.5062,2.3436 2.2075,0.44548 4.0137,1.29351 4.0137,1.88449 0,0.59098 1.749,1.07452 3.8867,1.07452 4.5184,0 6.3192,2.01778 2.294,2.57046 -1.8518,0.25426 -2.6876,1.01721 -2.6006,2.37374 0.1343,2.09391 -0.979,2.52874 -9.9906,3.90222 -2.7122,0.41336 -6.4846,1.97875 -8.3831,3.47864 -4.9879,3.9406 -17.6506,5.18072 -66.571,6.51965 -45.484,1.24487 -75.2649,2.96712 -82.7883,4.78771 -5.2601,1.27287 -60.9891,6.1896 -92.269,8.1405 -15.2502,0.95114 -173.51277,1.76362 -189.85082,0.97465 -2.16972,-0.10473 -41.22475,0.11251 -86.78894,0.48274 -45.5642,0.37027 -88.39158,0.26744 -95.17197,-0.22853 z M 1274.1425,598.30319 c 1.7629,-0.26132 4.6476,-0.26132 6.4105,0 1.7629,0.26133 0.3205,0.47515 -3.2053,0.47515 -3.5258,0 -4.9681,-0.21382 -3.2052,-0.47515 z m -29.5872,-3.46218 c 0.6781,-0.32681 1.7876,-0.32681 2.4656,0 0.6781,0.3268 0.1233,0.5942 -1.2328,0.5942 -1.3561,0 -1.9108,-0.2674 -1.2328,-0.5942 z"
       id="path136" />
  </g>
</svg>
