<svg class="Footer-module_luluLogo__1Ny5n Footer-module_svgLink__2kcDh" xmlns="http://www.w3.org/2000/svg" viewBox="0 0 550 225" width="100%" height="100%" role="img" aria-labelledby="luluTitle">
<title id="luluTitle">Lulu Logo</title>
<path fill="white" d="M163.46177,172.21153,178.54606,71.93566a4.23287,4.23287,0,0,1,3.00712-3.43581l30.14658-8.74014a2.82193,2.82193,0,0,1,3.57648,3.12894L200.1888,163.4669c-.58283,4.8587,1.36065,6.80115,6.02438,6.80115a27.53113,27.53113,0,0,0,4.56588-.41611,3.03109,3.03109,0,0,1,3.52042,3.42452l-3.11263,20.65235a5.01284,5.01284,0,0,1-3.8406,4.13787A65.03661,65.03661,0,0,1,191.63914,200C170.65182,200,160.74152,190.28363,163.46177,172.21153ZM376.13827,200a65.03661,65.03661,0,0,0,15.70711-1.93332,5.01284,5.01284,0,0,0,3.8406-4.13787l3.11262-20.65235a3.03108,3.03108,0,0,0-3.52042-3.42452,27.53093,27.53093,0,0,1-4.56587.41611c-4.66373,0-6.60721-1.94245-6.02438-6.80115L399.77537,62.88865a2.82193,2.82193,0,0,0-3.57648-3.12894l-30.14658,8.74014a4.23286,4.23286,0,0,0-3.00712,3.43581L347.9609,172.21153C345.24065,190.28363,355.151,200,376.13827,200Zm-39.43163-30.17686a23.05471,23.05471,0,0,1-4.36177.44491c-4.85766,0-6.80115-2.13742-6.02334-6.80115l8.815-59.68488a3.02762,3.02762,0,0,0-2.99513-3.47h-29.252a3.02761,3.02761,0,0,0-2.9942,2.57905L292.50868,152.196c-1.55458,11.077-9.13249,17.68423-19.82061,17.68423-10.49314,0-15.35184-6.99612-13.60229-18.26707l7.06534-47.831A3.02762,3.02762,0,0,0,263.156,100.312H233.91074a3.02762,3.02762,0,0,0-2.99515,2.58541l-8.16794,55.32288C219.05565,183.09358,233.04685,200,258.308,200c13.40836,0,25.651-4.8587,33.81285-12.04772C295.61784,195.5302,304.16854,200,317.77083,200a69.08719,69.08719,0,0,0,15.94815-1.9942,4.602,4.602,0,0,0,3.54175-3.82731l3.01393-20.9534A3.03373,3.03373,0,0,0,336.70664,169.82314Zm184.69369,0a23.05479,23.05479,0,0,1-4.36177.44491c-4.85767,0-6.80115-2.13742-6.02334-6.80115l8.815-59.68488a3.02763,3.02763,0,0,0-2.99514-3.47h-29.252a3.02762,3.02762,0,0,0-2.99421,2.57905L477.20237,152.196c-1.55458,11.077-9.1325,17.68423-19.82061,17.68423-10.49314,0-15.35185-6.99612-13.6023-18.26707l7.06534-47.831a3.02762,3.02762,0,0,0-2.99512-3.47005H418.60443a3.02762,3.02762,0,0,0-2.99515,2.58541l-8.168,55.32288C403.74934,183.09358,417.74054,200,443.00165,200c13.40837,0,25.65106-4.8587,33.81285-12.04772C480.31152,195.5302,488.86222,200,502.46452,200a71.21608,71.21608,0,0,0,17.00454-2.235,3.04192,3.04192,0,0,0,2.33246-2.52342l3.16683-22.0165A3.03373,3.03373,0,0,0,521.40033,169.82314Zm-439.31647-.53737a121.94714,121.94714,0,0,0-30.76412-10.49236,10.67688,10.67688,0,0,1-8.62581-12.12516l13.124-87.20119a127.84309,127.84309,0,0,0-13.202-.0803,1.64173,1.64173,0,0,0-1.53059,1.3994L25.01879,167.53878a1.64126,1.64126,0,0,0,1.662,1.88984c9.94056-.24421,55.318-.29558,79.31242,17.86957C100.03353,180.36434,92.05127,174.33319,82.08386,169.28577Zm47.8982,25.6615s7.0278-46.19032,15.42632-102.46332c7.52813-50.44117-39.20078-64.96463-48.96711-67.43315a1.643,1.643,0,0,0-2.02854,1.35189L83.87925,96.6017a20.9154,20.9154,0,0,0-.26454,3.0966c-.00166,12.12167,10.60673,14.4381,15.85382,14.84247a1.63933,1.63933,0,0,1,1.27963,2.48605C97.37942,122.5813,90.47892,136.5121,98.722,146.54,98.722,146.54,126.325,171.46851,129.98206,194.94727ZM92.6443,153.26961a9.09154,9.09154,0,0,1-.92731-.97158c-6.73961-8.19912-7.77123-19.20027-3.15585-31.07479C79.7188,117.50776,74.54555,109.83735,74.547,99.69839a29.44077,29.44077,0,0,1,.36492-4.44226L83.06417,40.9267a98.42931,98.42931,0,0,0-13.65448-1.3216,1.63846,1.63846,0,0,0-1.64349,1.40152L51.66071,148.01782a1.64625,1.64625,0,0,0,1.32728,1.86266c8.45455,1.58311,48.90907,10.60509,66.64106,40.94072C114.47922,175.53964,98.89421,158.933,92.6443,153.26961Z"></path>
</svg>