<svg width="45" height="45" viewBox="0 0 45 45" fill="none" xmlns="http://www.w3.org/2000/svg">
<path d="M35.625 7.5H9.375C8.33947 7.5 7.5 8.33947 7.5 9.375V13.125C7.5 14.1605 8.33947 15 9.375 15H35.625C36.6605 15 37.5 14.1605 37.5 13.125V9.375C37.5 8.33947 36.6605 7.5 35.625 7.5Z" stroke="#1C1C1C" stroke-width="4" stroke-linecap="round" stroke-linejoin="round"/>
<path d="M16.875 22.5H9.375C8.33947 22.5 7.5 23.3395 7.5 24.375V35.625C7.5 36.6605 8.33947 37.5 9.375 37.5H16.875C17.9105 37.5 18.75 36.6605 18.75 35.625V24.375C18.75 23.3395 17.9105 22.5 16.875 22.5Z" stroke="#1C1C1C" stroke-width="4" stroke-linecap="round" stroke-linejoin="round"/>
<path d="M26.25 22.5H37.5" stroke="#1C1C1C" stroke-width="4" stroke-linecap="round" stroke-linejoin="round"/>
<path d="M26.25 30H37.5" stroke="#1C1C1C" stroke-width="4" stroke-linecap="round" stroke-linejoin="round"/>
<path d="M26.25 37.5H37.5" stroke="#1C1C1C" stroke-width="4" stroke-linecap="round" stroke-linejoin="round"/>
</svg>
